<?xml version="1.0" encoding="utf-8"?>
<!-- Generator: Adobe Illustrator 26.1.0, SVG Export Plug-In . SVG Version: 6.00 Build 0)  -->
<svg version="1.1" id="Layer_1" xmlns="http://www.w3.org/2000/svg" xmlns:xlink="http://www.w3.org/1999/xlink" x="0px" y="0px"
	 width="1000px" height="711px" viewBox="0 0 1000 711" style="enable-background:new 0 0 1000 711;" xml:space="preserve">
<style type="text/css">
	.st0{fill-rule:evenodd;clip-rule:evenodd;fill:#D2E3FC;}
	.st1{fill:#D2E3FC;}
	.st2{fill-rule:evenodd;clip-rule:evenodd;fill:#4682F4;}
	.st3{fill:none;stroke:#4682F4;stroke-width:8;stroke-linecap:round;}
	.st4{opacity:0.2645;fill-rule:evenodd;clip-rule:evenodd;fill:#4682F4;enable-background:new    ;}
	.st5{fill-rule:evenodd;clip-rule:evenodd;fill:#FFFFFF;}
	.st6{fill-rule:evenodd;clip-rule:evenodd;fill:#CEEAD6;}
	.st7{fill-rule:evenodd;clip-rule:evenodd;fill:#F9CB58;}
	.st8{fill-rule:evenodd;clip-rule:evenodd;fill:#F9B7F9;}
	.st9{fill-rule:evenodd;clip-rule:evenodd;fill:#EC86F2;}
	.st10{fill:#DF69E8;enable-background:new    ;}
</style>
<g id="Doctopus">
	<desc>Created with Sketch.</desc>
	<g id="R3">
		<g id="Octopus" transform="translate(-3073.000000, -1360.000000)">
			<g id="Blue-Doctopus" transform="translate(3073.000000, 1360.000000)">
				<g id="Group-3-Copy">
					<g id="Group-4-Copy-2">
						<circle id="Oval" class="st0" cx="428.9" cy="256.5" r="256.5"/>
						<path id="Combined-Shape" class="st1" d="M632.8,416.3c-24.6,26.5-37.6,58.8-38.5,96.8c-0.9,37.4,14.8,63.9,47.4,79.5
							c9.8,1.6,16.8-0.2,22.6-4.5c2.5-1.9,4.7-4.1,6.4-6.5c0.6-0.9,1.1-1.9,1.6-2.5l0,0l0.2-0.3c1.9-6.9,2-12,0.3-16.2l0,0h-0.6
							c-12.2,1.1-24.3-5-30.4-16.4c-8.1-15.1-2.3-34.1,12.8-42.3c24.6-13.3,49.7-4.4,66.6,18.2c9.5,12.9,14.3,27.3,15.1,42.4
							c0.5,10.9-0.9,20.9-3.9,31.3c-4.1,14.3-15.4,30.7-30.9,41.9c-20.6,15.1-46.8,21-75.8,14.7c-21.5-4.7-39-13.7-53.2-26.8
							c-11.2-10.3-19.3-21.8-27.4-37.1l0,0l-0.3-0.6c-1.1-2-2.2-4.2-3.6-6.9l0,0l-3.3-6.4l-1.1-2l-1.4-2.8
							c-9.7-18.9-17.8-46.5-24.9-83.6l0,0l-0.6-3.3l-0.6-3.1c-2.2-11.7,2.5-23.2,11.4-30.1c-0.3-6.7-0.6-13.9-0.9-21.5l0,0
							L632.8,416.3z"/>
						<path id="Combined-Shape_00000096778080495253818560000003990752061023956156_" class="st1" d="M642.8,164.2
							c17.6,3.6,29.2,20.7,25.6,38.4c-7.8,38.7-12.6,70.8-14.8,96.1l32-19c-8.3,49.7-7.8,83.6,1.4,101.4
							c5.9,11.4,23.4,12.2,41.8,11.2c1.9-0.3,3.9-0.6,5.9-1.1l1.2-0.3l10.1-2.2c0.9-0.2,1.7-0.3,2.5-0.5l0.8-0.2l1.6-0.3l1.4-0.3
							c6.1-1.1,11.4-1.7,16.7-1.9c8.3-0.3,16.2,0.5,24.2,2.5c41.9,11.2,66.1,41.9,62.7,87.5c-1.7,24.2-12.8,43-30.4,54.4
							c-12.8,8.3-27.6,11.5-41.2,11.1c-15-0.5-29.3-6.5-43.7-16.8c-14.7-10.4-17.9-30.9-7.5-45.5c10.4-14.5,30.6-17.9,45.1-7.8
							l0.5,0.3l0.6,0.5c2.7,1.9,4.8,3.1,6.5,3.7c0.5,0.2,0.8,0.3,1.1,0.5c0.9,0,2-0.3,2.8-0.5l0.2-0.2l0.2-0.3l0.2-0.5
							c0.3-0.9,0.5-2.2,0.6-3.7c0.9-12.3-1.4-15.9-12.8-19.2l-0.5-0.2l-1.1-0.3c-1.2-0.3-2.8-0.5-4.8-0.5c-2.5,0.2-3,0-6.9,0.8
							l-0.5,0.2l-2,0.3l-8,1.6c-16.1,10.9-39.3,19.3-70.8,21.8c-37.4,3-59.1-9.4-71.4-23.4l-23.2,11.4l-12.3-25.3l21.7-10.6
							c-1.7-5.5-2.3-9.5-2.7-10.6c-2-13.7-3.7-30.7-4.8-51.1l-0.2-0.6c-7.5-33.1-3.4-86.5,11.4-163.4l0.5-2.3l0.9-4.8l0.9-5
							C607.9,172.1,625,160.8,642.8,164.2z"/>
						<path id="Combined-Shape_00000057860154556050374170000016382538852325162397_" class="st1" d="M238.6,282.2l1.1,6.2l0.8,4.4
							c7.5,46.8,10.1,78,7.8,96.7l-0.2,1.6l-0.2,1.6c-0.2,1.1-0.3,2.3-0.3,3.7l-0.8,8c-0.3,3-0.6,5.8-0.8,8.4l19.6,15.3
							c-16.7,51-41,79.1-73.3,84.2c-18.6,3-37.7,3.3-49.9,0c-1.1-0.3-2.2-0.6-3.4-1.1c-10-2.8-19.8-7.8-29.2-15.1
							c-1.9-1.6-3.6-3.1-5.1-5l-1.6-1.9l-1.6-1.9c-9.4-11.1-17.3-19.2-23.7-24.3c-2-1.6-3.7-2.8-5-3.6l-0.3-0.2
							c-2.2,0-4.2,0.2-5.8,0.5c0.3,0.8,0.8,1.7,1.2,2.7l0.3,0.6c8.3,16.1,2,35.9-14,44.1s-35.9,2-44.1-14
							c-11.1-21.4-13.9-42.4-5.5-61.9c6.5-15.3,18.7-25.9,34-31.7c10.9-4.1,22.8-5.6,36.6-5.6c15.1,0,29.2,6.5,43.5,18.1
							c5.8,4.7,11.9,10.1,18.1,16.8c14.7,10.9,25.9,12.8,33.5,5.6c3-2.8,5.6-7.3,8-13.3c1.1-5,2-10.9,2.8-18.9l1.1-12l0.2-1.9
							l0.2-1.7c0.2-1.4,0.3-2.8,0.5-4.1l0.2-0.8c1.6-11.2-1.4-41.9-9.2-88.6c-3-17.8,9-34.8,27-37.7
							C218.8,252.4,235.7,264.4,238.6,282.2z"/>
						<path id="Combined-Shape_00000044144815803639111740000000811975684224921736_" class="st1" d="M367.6,461.9l9.8,0.6
							c3.9,45.5,1.7,77-6.2,94.6c-0.9,2-1.9,4.1-3.1,5.9c-13.3,35.6-62.2,59.6-102.6,46.8c-13.1-4.1-23.2-9.5-33.5-17l-1.1-0.8
							c-2.5-1.9-9.7-7.3-9.4-7.2l-0.9-0.8c-4.2-3.1-6.4-4.2-9.5-4.8c-3.9-0.8-6.9-1.1-9-1.1h-0.6h-0.5c-0.5,0-0.8,0.2-0.9,0.2l0,0
							c0,0-0.2,0-0.5,0.5c-1.1,1.1-2.3,3.1-3.7,6.2c-2.3,5.1-2.2,8.3,1.4,13.4l0.3,0.5c10,14,6.7,33.5-7.2,43.5
							c-14,10-33.5,6.7-43.5-7.2c-16.8-23.5-19.6-50.7-7.5-76.6c16.8-36,45.8-48.5,84.2-40.9c6.9,1.4,12.8,3.3,18.4,6.1l-0.2-0.2
							c16.1,8.1,30.4,9,42.9,2.8c12.5-6.2,10.8-29.8-5.3-70.6l32.4,2c5.1-8.7,14.2-14.8,25.1-15.4C350.6,442,362.6,450,367.6,461.9z
							"/>
						<path id="Combined-Shape_00000064341666080534562670000017450356088125134209_" class="st1" d="M471.6,433.5
							c20.3,0.3,36.3,17,36,37.3c-1.4,76.2-11.1,132.8-30.4,171.2c-14.8,29.5-35.7,49.1-60.5,59.9c-9.7,4.2-19.5,6.7-29.5,8.1
							c-6.9,0.9-12,1.1-19.2,1.1c-18.4,0-35.7-7.2-52.1-20c-15.9-12.5-18.9-35.6-6.4-51.5c12.3-15.7,35.1-18.7,51-6.7l0.5,0.3
							c2.5,2,4.7,3.3,6.4,4.1l0.3,0.2c0.3,0.2,0.5,0.2,0.6,0.3h0.2c8.4,0,13.6-0.8,19.5-3.3c8.9-3.7,16.8-11.4,24-25.4
							c2.5-5,4.8-10.6,6.9-17c1.2-5.6,2.2-11.5,2.7-17.9c2-27.3-9.4-53.3-34-78l46.2-4.8c0.3-7,0.5-14.3,0.6-22
							C434.6,449.2,451.3,433.2,471.6,433.5z"/>
						<g id="Group" transform="translate(290.000000, 145.000000)">
						</g>
						<g id="Group-Copy" transform="translate(180.184870, 145.000000)">
						</g>
					</g>
				</g>
				<circle id="Oval-Copy-2" class="st2" cx="475.6" cy="248.7" r="23.4"/>
				<circle id="Oval-Copy-3" class="st2" cx="304.6" cy="248.7" r="23.4"/>
				<path id="Path-6-Copy" class="st3" d="M351.7,332.9l10.3,5.3c21.7,11.1,47.9,9,67.7-5.3l0,0l0,0"/>
				<circle id="Oval-Copy-4" class="st4" cx="529.4" cy="339.1" r="45.2"/>
				<circle id="Oval-Copy-5" class="st4" cx="251.9" cy="332.9" r="45.2"/>
				<path id="Oval-Copy-6" class="st5" d="M247.5,117.1c2.3,1.9,7-0.2,10.4-4.4s15-21.4,12.5-23.2c-2.3-1.9-17.8,12.2-21.2,16.4
					C246,110.2,245.2,115.2,247.5,117.1z"/>
			</g>
		</g>
	</g>
</g>
<g id="Documents">
	<g id="R3_00000150086292895341975120000011565898391296778914_">
		<g id="Accessories" transform="translate(-1755.000000, -502.000000)">
			<g id="Documents_00000099653539688821880790000004786553354000383892_" transform="translate(1755.000000, 486.000000)">
				<path id="Rectangle-Copy-5" class="st6" d="M853,127.5l126.5,67.2c18.9,10,26,33.5,16.1,52.4L873.4,476.8
					c-10,18.9-33.5,26-52.4,16.1l-126.5-67.2c-18.9-10-26-33.5-16.1-52.4l122.1-229.7C810.7,124.5,834.1,117.4,853,127.5z"/>
				<path id="Rectangle" class="st7" d="M739.6,133.9l142.2,17.5c21.2,2.7,36.3,21.8,33.7,43.2l-31.8,258.1
					c-2.7,21.2-21.8,36.3-43.2,33.7l-142-17.5c-21.2-2.7-36.3-21.8-33.7-43.2l31.7-258.2C699.1,146.4,718.4,131.2,739.6,133.9z"/>
				<path id="Oval_00000000901259861107502140000010127733678716096676_" class="st5" d="M639.7,272.2c2.3,0,2.3-22,4.4-43.2
					c2-21.2-3.3-43.2-4.4-43.2c-2.3,0-4.4,19.3-4.4,43.2S637.3,272.2,639.7,272.2z"/>
				<g>
					<g id="Rectangle_00000083073710794564208070000013666327926328412584_">
						<path id="path-1_00000044881586400074555300000009513424493156692870_" class="st8" d="M651.1,156.2h150.6
							c32.7,0,59.3,26.5,59.3,59.3v247c0,16.4-13.3,29.6-29.6,29.6H787h-16.2h-20.7h-99c-16.4,0-29.6-13.3-29.6-29.6V185.8
							C621.4,169.4,634.7,156.2,651.1,156.2z"/>
					</g>
					<g>
						
							<rect id="Rectangle_00000065756466686733820410000004775164044102826634_" x="675.7" y="272.2" class="st9" width="122.7" height="19.8"/>
						<rect id="Rectangle-Copy-26" x="675.7" y="315.1" class="st9" width="122.7" height="19.8"/>
						<rect id="Rectangle-Copy-27" x="675.7" y="357.8" class="st9" width="122.7" height="19.8"/>
						<rect id="Rectangle-Copy-28" x="675.7" y="400.7" class="st9" width="71.6" height="19.8"/>
					</g>
					<path class="st10" d="M801.7,156.2h-11.3c-0.7,2.1-1,4.4-1,6.7v45.2c0,16.8,13.6,30.4,30.4,30.4h41.2v-23.1
						C860.9,182.7,834.4,156.2,801.7,156.2z"/>
				</g>
			</g>
		</g>
	</g>
</g>
<g id="Arm">
	<path id="Combined-Shape_00000050653901895085013350000005125447700615575182_" class="st1" d="M735.1,476.2
		c10.9-12.2,29.3-14.5,42.9-5.1l0.5,0.3l0.6,0.5c2.7,1.9,4.8,3.1,6.5,3.7c0.5,0.2,0.9,0.5,1.1,0.5C787,476,734.3,477,735.1,476.2z"
		/>
</g>
</svg>
