<svg width="77" height="64" viewBox="0 0 77 64" fill="none" xmlns="http://www.w3.org/2000/svg">
<path d="M38.5964 46.1447C51.3155 46.1447 61.6264 35.8306 61.6264 23.1075C61.6264 10.3844 51.3155 0.0703125 38.5964 0.0703125C25.8773 0.0703125 15.5664 10.3844 15.5664 23.1075C15.5664 35.8306 25.8773 46.1447 38.5964 46.1447Z" fill="#D2E3FC"/>
<path d="M56.9127 37.4619C54.6946 39.8428 53.5406 42.7426 53.4508 46.1613C53.3626 49.5181 54.7835 51.9 57.7137 53.3071C58.5893 53.4507 59.2199 53.2864 59.7371 52.905C59.9604 52.7403 60.1556 52.5363 60.3057 52.3223C60.3641 52.239 60.4107 52.1611 60.4425 52.0975L60.4528 52.0761C60.6228 51.4538 60.6394 51.0005 60.4842 50.6262L60.4308 50.6316C59.3438 50.7309 58.2524 50.1856 57.7055 49.1622C56.9764 47.7981 57.4909 46.101 58.8546 45.3717C61.0689 44.1875 63.3253 44.9735 64.8299 47.0169C65.6835 48.1761 66.1141 49.472 66.1812 50.8228C66.2298 51.8007 66.0936 52.706 65.83 53.6421C65.4666 54.9327 64.4406 56.3957 63.0605 57.4136C61.2123 58.7768 58.8655 59.3025 56.2563 58.7291C54.3275 58.3053 52.7513 57.4954 51.4759 56.3234C50.4685 55.3977 49.7419 54.3635 49.0118 52.9916L48.9786 52.929C48.879 52.7407 48.7794 52.5466 48.66 52.31L48.3705 51.7339L48.2747 51.5456L48.1457 51.2962C47.2748 49.6013 46.5472 47.1244 45.9049 43.7928L45.85 43.5052L45.7971 43.2213C45.602 42.1647 46.0274 41.1371 46.815 40.514C46.781 39.915 46.7529 39.2699 46.7305 38.5789L56.9127 37.4619Z" fill="#D2E3FC"/>
<path d="M57.804 14.8218C59.3921 15.1411 60.4207 16.6867 60.1016 18.2739C59.4037 21.7451 58.9625 24.6358 58.7648 26.9027L61.6325 25.1969C60.8891 29.6686 60.9298 32.701 61.7545 34.2941C62.2862 35.3213 63.8523 35.385 65.5066 35.3044C65.6752 35.2753 65.8512 35.2422 66.0364 35.2051L66.1486 35.1823L67.0577 34.9929C67.1382 34.9765 67.2135 34.9615 67.2863 34.9473L67.3584 34.9334L67.4998 34.9069L67.6257 34.8841C68.1659 34.7885 68.6419 34.7306 69.1251 34.7116C69.8695 34.6823 70.5848 34.7509 71.2961 34.9402C75.0688 35.9443 77.2284 38.7105 76.9293 42.7912C76.7704 44.9581 75.7877 46.6621 74.2004 47.6853C73.0472 48.4287 71.7261 48.7224 70.4983 48.6794C69.1579 48.6325 67.8654 48.0958 66.5753 47.1694C65.2596 46.2248 64.9589 44.3931 65.9038 43.0783C66.8383 41.7777 68.6414 41.47 69.9537 42.3777L69.9968 42.4081L70.0476 42.4441C70.2819 42.6085 70.4796 42.7205 70.6335 42.7845C70.6761 42.8021 70.7094 42.8137 70.7331 42.8203C70.8191 42.8185 70.9196 42.7989 70.9804 42.7767L70.9991 42.7692L71.0114 42.7379L71.0252 42.6948C71.0496 42.611 71.0689 42.501 71.0791 42.3614C71.1604 41.2533 70.9533 40.9371 69.9279 40.6442L69.8828 40.6315L69.7881 40.6057C69.6745 40.5755 69.5411 40.5627 69.3572 40.5699C69.1392 40.5785 69.091 40.574 68.7473 40.6387L68.7047 40.6468L68.5255 40.6818L67.8077 40.8281C66.3671 41.8065 64.2859 42.5678 61.4573 42.79C58.0927 43.0544 56.1559 41.9513 55.0443 40.6848L52.9563 41.7036L51.8516 39.4379L53.8032 38.4855C53.6431 37.9978 53.587 37.6361 53.5708 37.5287C53.3852 36.298 53.2384 34.7692 53.1305 32.9422L53.1162 32.8807C52.4372 29.9097 52.8045 25.1075 54.1363 18.2059L54.1769 17.9961L54.2617 17.564L54.3508 17.1175C54.6699 15.5303 56.2159 14.5025 57.804 14.8218Z" fill="#D2E3FC"/>
<path d="M21.5203 25.4247L21.6135 25.9901L21.6769 26.3833C22.3473 30.5786 22.5921 33.3874 22.3815 35.0654L22.3637 35.2039L22.3474 35.3424C22.3364 35.4402 22.3251 35.5497 22.313 35.6753L22.2472 36.3888C22.2228 36.6534 22.1981 36.9021 22.1723 37.1381L23.9407 38.5122C22.4474 43.0869 20.2541 45.6077 17.3607 46.0745C15.6976 46.3428 13.9729 46.3706 12.8807 46.0745C12.7849 46.0485 12.6836 46.0158 12.5767 45.9762C11.6792 45.7236 10.7972 45.2697 9.95534 44.6147C9.78337 44.4809 9.62679 44.3284 9.48851 44.16L9.35316 43.9962L9.21282 43.8285C8.37739 42.8367 7.66118 42.1069 7.08872 41.6488C6.9097 41.5056 6.75925 41.4006 6.64433 41.3325L6.61635 41.3163C6.41835 41.3218 6.24525 41.334 6.09823 41.3513C6.12908 41.424 6.16589 41.5034 6.20913 41.5891L6.23585 41.6413C6.98446 43.0826 6.42328 44.858 4.98243 45.6069C3.54158 46.3557 1.76668 45.7944 1.01807 44.3531C0.0225838 42.4364 -0.228012 40.5386 0.52246 38.7886C1.11201 37.4139 2.19715 36.4607 3.57596 35.941C4.55013 35.5738 5.61858 35.4311 6.86032 35.4311C8.22345 35.4311 9.4727 36.0242 10.7619 37.0559C11.281 37.4713 11.8216 37.973 12.3886 38.5629C13.7085 39.5452 14.7125 39.7149 15.4007 39.0723C15.665 38.8256 15.9082 38.4167 16.1113 37.8825C16.2134 37.4295 16.2875 36.9058 16.3595 36.1876L16.4603 35.1091L16.4772 34.9383L16.494 34.7782C16.5079 34.6487 16.522 34.5283 16.537 34.4118L16.5461 34.3422C16.6803 33.3357 16.4176 30.5766 15.7203 26.3917C15.4534 24.7895 16.5354 23.2743 18.137 23.0073C19.7386 22.7402 21.2534 23.8226 21.5203 25.4247Z" fill="#D2E3FC"/>
<path d="M33.098 41.5447L33.9856 41.5996C34.3311 45.6824 34.1461 48.5145 33.4306 50.096C33.3487 50.2771 33.2574 50.4555 33.1568 50.6313C31.9654 53.8249 27.5692 55.9845 23.9385 54.8376C22.7669 54.4675 21.8488 53.9834 20.9233 53.318L20.8307 53.2509C20.6059 53.0865 19.9676 52.5928 19.9935 52.6124L19.9046 52.5457C19.5198 52.2602 19.3324 52.1683 19.0526 52.1123C18.7049 52.0428 18.4346 52.0152 18.2367 52.0211L18.1844 52.0234L18.1363 52.0272C18.0936 52.0316 18.0666 52.0374 18.0509 52.0429L18.0447 52.0453C18.0425 52.0462 18.0354 52.0513 18.0004 52.0893C17.9044 52.1938 17.7876 52.3754 17.659 52.6509C17.4441 53.1115 17.4656 53.3895 17.7915 53.8591L17.8201 53.8998C18.719 55.1585 18.4275 56.9078 17.1691 57.8069C15.9108 58.706 14.1621 58.4145 13.2632 57.1557C11.7497 55.0361 11.4987 52.6092 12.5844 50.2821C14.0913 47.0519 16.7073 45.9304 20.1508 46.6194C20.769 46.743 21.3001 46.9189 21.8056 47.1605L21.7977 47.153C23.2423 47.8756 24.5276 47.9603 25.6535 47.4071C26.7795 46.854 26.6227 44.7373 25.183 41.0572L28.1002 41.2369C28.5555 40.4544 29.381 39.9069 30.3523 39.848C31.5664 39.7744 32.6466 40.4861 33.098 41.5447Z" fill="#D2E3FC"/>
<path d="M42.4371 39.0025C44.2538 39.0353 45.6999 40.5351 45.6671 42.3524C45.5435 49.1982 44.6787 54.2865 42.9437 57.7296C41.6116 60.3731 39.7402 62.1476 37.5103 63.1043C36.6363 63.4792 35.7533 63.7094 34.859 63.8285C34.2476 63.91 33.7832 63.9298 33.133 63.9298C31.4858 63.9298 29.9253 63.2847 28.4533 62.1354C27.021 61.0171 26.7661 58.949 27.8841 57.5162C28.9908 56.0978 31.0279 55.8337 32.4584 56.9133L32.502 56.9468C32.7319 57.1264 32.9243 57.2448 33.0719 57.3103L33.1008 57.3227C33.1249 57.3327 33.1443 57.3397 33.1592 57.3445L33.1695 57.3476C33.9234 57.3457 34.39 57.2811 34.9167 57.0551C35.7146 56.7128 36.4285 56.0358 37.0679 54.7669C37.2913 54.3237 37.4979 53.8163 37.687 53.2454C37.8052 52.7446 37.8848 52.2074 37.926 51.6337C38.1023 49.1782 37.086 46.8464 34.8772 44.6384L39.0278 44.2021C39.0557 43.5686 39.0759 42.9123 39.0882 42.2336C39.121 40.4163 40.6203 38.9697 42.4371 39.0025Z" fill="#D2E3FC"/>
<path d="M42.7953 24.508C43.9551 24.508 44.8953 23.5675 44.8953 22.4073C44.8953 21.2471 43.9551 20.3066 42.7953 20.3066C41.6355 20.3066 40.6953 21.2471 40.6953 22.4073C40.6953 23.5675 41.6355 24.508 42.7953 24.508Z" fill="#4682F4"/>
<path d="M27.4398 24.508C28.5996 24.508 29.5399 23.5675 29.5399 22.4073C29.5399 21.2471 28.5996 20.3066 27.4398 20.3066C26.28 20.3066 25.3398 21.2471 25.3398 22.4073C25.3398 23.5675 26.28 24.508 27.4398 24.508Z" fill="#4682F4"/>
<path d="M31.6641 29.9697L32.5906 30.4435C34.5428 31.4416 36.8901 31.2585 38.6641 29.9697" stroke="#4682F4" stroke-width="8" stroke-linecap="round"/>
<path opacity="0.264462" d="M47.6264 34.5913C49.8687 34.5913 51.6864 32.773 51.6864 30.53C51.6864 28.287 49.8687 26.4688 47.6264 26.4688C45.3841 26.4688 43.5664 28.287 43.5664 30.53C43.5664 32.773 45.3841 34.5913 47.6264 34.5913Z" fill="#4682F4"/>
<path opacity="0.264462" d="M22.7045 34.0307C24.9468 34.0307 26.7645 32.2124 26.7645 29.9695C26.7645 27.7265 24.9468 25.9082 22.7045 25.9082C20.4623 25.9082 18.6445 27.7265 18.6445 29.9695C18.6445 32.2124 20.4623 34.0307 22.7045 34.0307Z" fill="#4682F4"/>
<path fill-rule="evenodd" clip-rule="evenodd" d="M22.3178 10.5821C22.531 10.7488 22.9487 10.5704 23.2508 10.1837C23.5528 9.79699 24.5898 8.27026 24.3765 8.1036C24.1633 7.93694 22.7806 9.19345 22.4785 9.58017C22.1765 9.96688 22.1045 10.4155 22.3178 10.5821Z" fill="white"/>
</svg>
